<mxfile host="app.diagrams.net" modified="2021-12-13T03:30:23.519Z" agent="5.0 (Windows NT 10.0; Win64; x64) AppleWebKit/537.36 (KHTML, like Gecko) Chrome/96.0.4664.45 Safari/537.36" etag="eAQu20MAF_fksUCBPDkL" version="15.8.9" type="github">
  <diagram id="C5RBs43oDa-KdzZeNtuy" name="Page-1">
    <mxGraphModel dx="1422" dy="762" grid="1" gridSize="10" guides="1" tooltips="1" connect="1" arrows="1" fold="1" page="1" pageScale="1" pageWidth="827" pageHeight="1169" math="0" shadow="0">
      <root>
        <mxCell id="WIyWlLk6GJQsqaUBKTNV-0" />
        <mxCell id="WIyWlLk6GJQsqaUBKTNV-1" parent="WIyWlLk6GJQsqaUBKTNV-0" />
        <mxCell id="2ZD5GdODbhkUTzI_y2qM-0" style="edgeStyle=orthogonalEdgeStyle;rounded=0;orthogonalLoop=1;jettySize=auto;html=1;exitX=0.5;exitY=1;exitDx=0;exitDy=0;exitPerimeter=0;entryX=0.5;entryY=0;entryDx=0;entryDy=0;entryPerimeter=0;" edge="1" parent="WIyWlLk6GJQsqaUBKTNV-1" target="2ZD5GdODbhkUTzI_y2qM-3">
          <mxGeometry relative="1" as="geometry">
            <mxPoint x="570" y="320" as="sourcePoint" />
          </mxGeometry>
        </mxCell>
        <mxCell id="2ZD5GdODbhkUTzI_y2qM-1" style="edgeStyle=orthogonalEdgeStyle;rounded=0;orthogonalLoop=1;jettySize=auto;html=1;exitX=0.5;exitY=1;exitDx=0;exitDy=0;exitPerimeter=0;" edge="1" parent="WIyWlLk6GJQsqaUBKTNV-1" source="2ZD5GdODbhkUTzI_y2qM-3">
          <mxGeometry relative="1" as="geometry">
            <mxPoint x="570" y="600" as="targetPoint" />
          </mxGeometry>
        </mxCell>
        <mxCell id="2ZD5GdODbhkUTzI_y2qM-2" style="edgeStyle=orthogonalEdgeStyle;rounded=0;orthogonalLoop=1;jettySize=auto;html=1;exitX=1;exitY=0.5;exitDx=0;exitDy=0;exitPerimeter=0;entryX=1.03;entryY=0.403;entryDx=0;entryDy=0;entryPerimeter=0;" edge="1" parent="WIyWlLk6GJQsqaUBKTNV-1" source="2ZD5GdODbhkUTzI_y2qM-3" target="2ZD5GdODbhkUTzI_y2qM-8">
          <mxGeometry relative="1" as="geometry">
            <mxPoint x="630" y="1040" as="targetPoint" />
            <Array as="points">
              <mxPoint x="690" y="455" />
              <mxPoint x="690" y="1040" />
            </Array>
          </mxGeometry>
        </mxCell>
        <mxCell id="2ZD5GdODbhkUTzI_y2qM-3" value="是否需要使用场景构建平台材质库里面的材质" style="strokeWidth=2;html=1;shape=mxgraph.flowchart.decision;whiteSpace=wrap;" vertex="1" parent="WIyWlLk6GJQsqaUBKTNV-1">
          <mxGeometry x="500" y="390" width="140" height="130" as="geometry" />
        </mxCell>
        <mxCell id="2ZD5GdODbhkUTzI_y2qM-4" value="方案一：美术人员工作流程，将BIM图层信息写入到数据库" style="rounded=0;whiteSpace=wrap;html=1;" vertex="1" parent="WIyWlLk6GJQsqaUBKTNV-1">
          <mxGeometry x="510" width="120" height="60" as="geometry" />
        </mxCell>
        <mxCell id="2ZD5GdODbhkUTzI_y2qM-5" value="" style="edgeStyle=orthogonalEdgeStyle;rounded=0;orthogonalLoop=1;jettySize=auto;html=1;" edge="1" parent="WIyWlLk6GJQsqaUBKTNV-1" source="2ZD5GdODbhkUTzI_y2qM-6" target="2ZD5GdODbhkUTzI_y2qM-10">
          <mxGeometry relative="1" as="geometry" />
        </mxCell>
        <mxCell id="2ZD5GdODbhkUTzI_y2qM-6" value="&lt;span&gt;批量替换选中图层所有对象的材质&lt;/span&gt;" style="rounded=1;whiteSpace=wrap;html=1;absoluteArcSize=1;arcSize=14;strokeWidth=2;" vertex="1" parent="WIyWlLk6GJQsqaUBKTNV-1">
          <mxGeometry x="520" y="600" width="100" height="100" as="geometry" />
        </mxCell>
        <mxCell id="2ZD5GdODbhkUTzI_y2qM-7" value="" style="edgeStyle=orthogonalEdgeStyle;rounded=0;orthogonalLoop=1;jettySize=auto;html=1;" edge="1" parent="WIyWlLk6GJQsqaUBKTNV-1" source="2ZD5GdODbhkUTzI_y2qM-8">
          <mxGeometry relative="1" as="geometry">
            <mxPoint x="570" y="1200" as="targetPoint" />
          </mxGeometry>
        </mxCell>
        <mxCell id="2ZD5GdODbhkUTzI_y2qM-8" value="点击同步按钮将BIM图层信息以及这层材质功能写入到数据库" style="rounded=1;whiteSpace=wrap;html=1;absoluteArcSize=1;arcSize=14;strokeWidth=2;" vertex="1" parent="WIyWlLk6GJQsqaUBKTNV-1">
          <mxGeometry x="520" y="1000" width="100" height="100" as="geometry" />
        </mxCell>
        <mxCell id="2ZD5GdODbhkUTzI_y2qM-9" value="" style="edgeStyle=orthogonalEdgeStyle;rounded=0;orthogonalLoop=1;jettySize=auto;html=1;" edge="1" parent="WIyWlLk6GJQsqaUBKTNV-1" source="2ZD5GdODbhkUTzI_y2qM-10" target="2ZD5GdODbhkUTzI_y2qM-8">
          <mxGeometry relative="1" as="geometry" />
        </mxCell>
        <mxCell id="2ZD5GdODbhkUTzI_y2qM-10" value="在UE中保存材质关系" style="rounded=1;whiteSpace=wrap;html=1;absoluteArcSize=1;arcSize=14;strokeWidth=2;" vertex="1" parent="WIyWlLk6GJQsqaUBKTNV-1">
          <mxGeometry x="520" y="800" width="100" height="100" as="geometry" />
        </mxCell>
        <mxCell id="2ZD5GdODbhkUTzI_y2qM-11" value="" style="edgeStyle=orthogonalEdgeStyle;rounded=0;orthogonalLoop=1;jettySize=auto;html=1;" edge="1" parent="WIyWlLk6GJQsqaUBKTNV-1" source="2ZD5GdODbhkUTzI_y2qM-14">
          <mxGeometry relative="1" as="geometry">
            <mxPoint x="570" y="1360" as="targetPoint" />
          </mxGeometry>
        </mxCell>
        <mxCell id="2ZD5GdODbhkUTzI_y2qM-12" value="" style="edgeStyle=orthogonalEdgeStyle;rounded=0;orthogonalLoop=1;jettySize=auto;html=1;" edge="1" parent="WIyWlLk6GJQsqaUBKTNV-1" source="2ZD5GdODbhkUTzI_y2qM-14">
          <mxGeometry relative="1" as="geometry">
            <mxPoint x="450" y="1240" as="targetPoint" />
          </mxGeometry>
        </mxCell>
        <mxCell id="2ZD5GdODbhkUTzI_y2qM-13" style="edgeStyle=orthogonalEdgeStyle;rounded=0;orthogonalLoop=1;jettySize=auto;html=1;exitX=1;exitY=0.5;exitDx=0;exitDy=0;exitPerimeter=0;entryX=-0.011;entryY=0.556;entryDx=0;entryDy=0;entryPerimeter=0;" edge="1" parent="WIyWlLk6GJQsqaUBKTNV-1" source="2ZD5GdODbhkUTzI_y2qM-14" target="2ZD5GdODbhkUTzI_y2qM-19">
          <mxGeometry relative="1" as="geometry" />
        </mxCell>
        <mxCell id="2ZD5GdODbhkUTzI_y2qM-14" value="数据库写入图层信息和材质功能信息&lt;br&gt;" style="strokeWidth=2;html=1;shape=mxgraph.flowchart.database;whiteSpace=wrap;" vertex="1" parent="WIyWlLk6GJQsqaUBKTNV-1">
          <mxGeometry x="520" y="1200" width="100" height="80" as="geometry" />
        </mxCell>
        <mxCell id="2ZD5GdODbhkUTzI_y2qM-15" value="结束" style="strokeWidth=2;html=1;shape=mxgraph.flowchart.start_1;whiteSpace=wrap;" vertex="1" parent="WIyWlLk6GJQsqaUBKTNV-1">
          <mxGeometry x="520" y="1360" width="100" height="60" as="geometry" />
        </mxCell>
        <mxCell id="2ZD5GdODbhkUTzI_y2qM-16" value="美术人员将BIM模型导入到UE4编辑器" style="rounded=1;whiteSpace=wrap;html=1;absoluteArcSize=1;arcSize=14;strokeWidth=2;" vertex="1" parent="WIyWlLk6GJQsqaUBKTNV-1">
          <mxGeometry x="520" y="220" width="100" height="100" as="geometry" />
        </mxCell>
        <mxCell id="2ZD5GdODbhkUTzI_y2qM-17" value="" style="edgeStyle=orthogonalEdgeStyle;rounded=0;orthogonalLoop=1;jettySize=auto;html=1;" edge="1" parent="WIyWlLk6GJQsqaUBKTNV-1" source="2ZD5GdODbhkUTzI_y2qM-18" target="2ZD5GdODbhkUTzI_y2qM-16">
          <mxGeometry relative="1" as="geometry" />
        </mxCell>
        <mxCell id="2ZD5GdODbhkUTzI_y2qM-18" value="开始" style="strokeWidth=2;html=1;shape=mxgraph.flowchart.start_1;whiteSpace=wrap;" vertex="1" parent="WIyWlLk6GJQsqaUBKTNV-1">
          <mxGeometry x="520" y="90" width="100" height="60" as="geometry" />
        </mxCell>
        <mxCell id="2ZD5GdODbhkUTzI_y2qM-19" value="" style="shape=image;verticalLabelPosition=bottom;labelBackgroundColor=#ffffff;verticalAlign=top;aspect=fixed;imageAspect=0;image=data:image/png,iVBORw0KGgoAAAANSUhEUgAAAZgAAAB+CAYAAAAZUQd+AAAWzElEQVR4nO3cT2gjaX7G8e+GzS4kOa5HOiQ74xxyMFJvEklsG+ook2Dj6VNIbqbdqFCSQ3cvCUad3AJd6BLb5A+mxMiY5LLJqVvYJFhHhe5FEpvpEn1LnCUXVXthyWXJwGw2h6qSqkqlf25X2559PtDQllxSqar0Pu/7e9/y1z75+Ns/R0RE5Jr90k3vgIiIfDUpYEREJBUKGBERSYUCRkREUqGAERGRVChgREQkFQoYERFJhQJGRERSoYAREZFUKGBERCQVChgREUmFAkZERFKhgBERkVQoYEREJBUKGBERSYUCRkREUqGAERGRVChgREQkFQoYERFJhQJGRERSoYAREZFUKGBERCQVChgREUmFAkZERFKhgBERkVQoYEREJBUKGACzSb/XpHrT+yEi8hXy9Zt9e5OTXoXcUts4NIq7HIEXDGb+atuGVNfz4DQmHl+cyUnvPq8SXnv6Jk36D1web9XoXOk9Deqn++TfPGWzNucVzCZ9k4TPbnLS22b4ZJu9+EuYTc5Wm2zWOhhWi8Nsi8JDG8Nq8Yw6m7UO1eMunw6T3z+8zSLnyT0fv45htTi8N0g8NrPeM/nzeMcp+6LEjj1zF0Tkmt1wwAAMaYcahOpxl8pH7eSG17A4O8hEH3MaXiM2z2jbaaFWod+rLLyf76u6nod3r68YLsu/l3v+dCL8DGubnNNiJ2kn7Ndc9nap1joMxhvwbOOSl8UOYLKed3j5cMFP4E45p/ihMfrJpLIB7Sc1On44lGOnnPw+/Y3Qz7OuAXOXMm0eK1xEPrhbEDAhZpNKHqDMYa8ceco9f8rm6XW8ic1OcdzazOotJzGsFocb2cTncr0u8YjyeuYkN5RzQw0G9nv0vA2Ls4MyGYg0yt4+rVHZyCbsQxCkNjv2fU5MRgFTfZTDebLtjx7vkyM/8ZkH/9Jm5ff99/Rfe+A4C+9y9bjCyvlTP/Q67G2VYs/PGsHEmZyYeSA/cT0BM0NPRN7f7QmYoIwS+9J7DfolL2sdMLYmt8vPb6TH4g2dSWUjy8DeDjUyC5RU4j1mf3T0MlaCGvfMow3ldYYaG7HePDAKCW9nI6WxYJ+qxxVyEz1/r8REZOTQ5RCAihckB13Ozp/yMpsPhV/smP1lLaFENtlpCHOHeB0MGhRqHf+YeoE2f9QYHZXmDrr03Tbtd+WEzxhs0qT/YN7risj7uB0Bs2ZxZkKjWOLIn3BvFJusnu575Y3ijIZ40RJZEvM+OfcayidrGTKuOy4lzX7TUAloCROfc9ocTBASM9zbo5JxaBSnffAgEP3XciD3USgQzSb9DXCHBow+xZDh2xnvObdEtkb9QR4y+VGHYWCX2Ftr0j+Izd9ESmRemO4U7WgoYXFWa/N4yyYIIN5nNCgiS7sdAfO2xmbR/7/9moFZodLbB2BgL9IQL7ZYIFpu8sonA3v3vUskxuoKZCAHc18rGDnsdObvc3ji+1q9qXujhKmCfXNoFLcZWC0O89ERyMBxyGXXAG9kmc9c8jLhJavHTXgVfzQ64jl6WPJHWPbEc7BLYdFQWMuQIUvmoEm1uMumP+A1rO3r6UiIyFJuRcBkH7XoHwQlIIdGscSO/1P1uEvf9P4/OG9HtjNWV/z/RedVFmFY214DavsLC+KLnMzx+8KsuRCvzOa6UOm1WJ1R0jGsFpU8DGzvhZL2eVQOcxrXFC55KrF5EncIs0uB4+NZPe5ySINCfF8Ni7OD+1SxOYqP4AyLZ/78zrpdYocmlUxCiSxyjL2RSGtr74orvgzq6yu4DHHOoXJqMdiq0QlGjDY8O7V4rjkXkQ/mVgTM8LPt0Uqm6nHXaxD9ksq4d4vXqE3MN1zBqAG8BIi+x1LLWg3qp6G5DLNJ/6BFfcqy38MNcN1pr+WPGpyExhymzzVNmYMZjv6fPAfjlcEanPS6nK36IyVjlRUueTUxugq/t/96nVMcd59102D1QR73TXNcPnvg0jgfUsm2vGNoEiuRTTnGhsXZRpYMQfAMaT9pkT2YMdILXtfcJT8ccJnPwWmT9r09tg1ga5uV8zo7dgdjtcXhsTkuNb67UNiIpOhWBEzYqLE3m/R73Zm1+1w2iztc5aTXXfheGve8gXOvDI6Du8wtNBNCgRA0WPYuBcYhcxH+XXOF9pM61PbJzirpxYLEPX/Kc7jeOZgRm50inPT2ObkosfM2/PjbiRDwJu5f+2HVYe+FQ9/c90aCwT7YXknLsFrjPV1dgXcu26ddDsMr6UIjmIFdorGaI0NCKXPaEvHRRL1B/cEKjvWa7IZXqNzb6njP3xvweMvbsFNrMehVODFtGqPRr4ik5fYETHhJrd+gFIozN2D1oyHOZzX2arXRo9XjrrcSyW+Mq5bFoBYKKLNJP9ug8Nnq5D01i8pX6Pe8hnBifiAImZpF+93oQb/kZFCP/Bw246ZHOhQW3rnQaxvv8fvmrreKzGxStXc5MiyebUD7SWi/7dcMzDw55/WMG0wNtu9lcd+04KOkUqM/mgE6tW0KtSkvM9Ma2Xfe/TwnoUer696igYnS3AOL3JurvI+ILOP2BEynxmbRb10Mi7ODLv3guaRRTMLEsmG1WH8VbvS97vGzXmu83NXvYWNYV9/XeSvX/PeoHpd5r0HSTQjmUoLjhMmJP4czsEuh8AtGcA6DfIUz623ynJGxRT4zxDl9C/cW2YHozZUDu7HANjY7D719CouWPmPvEhphiUg6bkHAZCmHwyRJZILYu5el+qgMobvTx/eKRCfnRy/h37+RyqqsW23aJP8kYytHJrTYerT4wWlQePiW+mmX/now+iuTCYLWsDg72OeMyeNrbOXIOC02O1AHcmby+RmMgmVI+0mJQjjIzBnXyPRJrRmCUdWsddUi8r5uQcAs8SdYQn/uJfxnSoK/j1Uozll6e7qFQScyElq1WvSTbmKcaAj9VU6zdzB2x75DY86fUomsYHPbNK49/6ZN8pPwN8KG/v05/ujEjd6DtLdV8hcyeDdZbgaDuE6NzeKFN5fzs/Gd/AMbKmZQVvPqb9NLZJN37Uf3a9YczHwTKwXdNo9/4TobIh/W1z75+Ns/v+mdEBGRrx79uX4REUmFAkZERFKhgBERkVQoYEREJBUKGBERSYUCRkREUqGAERGRVChgREQkFQoYERFJhQJGRERSoYAREZFUKGBERCQVChgREUmFAkZERFKhgBERkVQoYEREJBUKGBERSYUCRkREUqGAERGRVChgREQkFQoYERFJhQJGRERSoYAREZFUKGBERCQVChgREUmFAkZERFKhgBERkVQoYEREJBUKGBERSYUCRkREUqGAERGRVChgREQkFQoYERFJhQJGRERSoYAREZFUKGBERCQVX7/pHbjLDKvF4UZ2qW3c86ds1jqAQf10n3LmKtuGmZz0KqwkPrcIk5PeNsMn2+xdZXPxeecz+6LEjp3wtNmkb+YZ2FOe/0VhWJwdZHhZ3OUo4enqcZdK3qEx5fkJZpP+A5fHWzU6885BdEeon+6TfzPte7PMa8k0Nxow3sU0/fmBXWLnrcXZQZkMsy+6oLFPboRT5DQoPLSDneDsoMzllEaketzl08gjQ9oLNuyT20IQLjmAjX36G0lbznsPmx37Pv2DFvVrD5l5IervG7f1HIeOb1j4nC/CsDgzvQs9Z3bpm+En55wfP5jCop9/Vgcj/tzk7yZ/Bxe/LqftI7B0mBpWy9+XPJVel0r4Sbfth8gVGMH1FTp2xhb5zBDnVL2qNN1owBw9LI0aE6/xuJxsYAyAIa6b51PL4CixYTGpbIDrpr3HsxjUa95FnJloRLyG83rfzuLsIIfzpMRO4nckaEzqo4ZiXqCXD7r04w8u25hGdNjbKo1+qh53qXyU0FDc2nNss1OMfvbqcZdPh28Xf4mgh10sxRrHyfMTFYSzQ6NYinwnqsddzqxrDNl4421YnB106S/aqNu7FCKHyR8VL3GYvOP6lEIx9m5mk765QttaPFySQ7zEZugFqo/872r4mn+fEJNEd6ZE5rxxKG/sUq11Jnq4hrVNzhnQ/ijLjPYzReOeerTXFjQiTY6A6sR22eRGfQp36L/bKIy3k3v7oZHUZiwblun9G1aLw+UqgO/l9p1jg/rpLhdb0U7P5UVnelibXfqmNwK4eNQd9cgPe+XktwiPPEMNXPV4nzJtHhcnG7xwxywVnRqbxVPqp/scHl/M72AYFmePLtiM/N4lF50pI0DwRihum8dbF1SC38lPG4VHOz/u+VM2L3ZDoyb/+Dpt2swYOQXluScun+aXHKXJldyZgOG0SfvePusmHEUuHoPte1kGL1pkzdg2oaExEOuh+KHwrsHj4XZoLmWBkoVf8w1Uj71abqEG9dMuZ6vjL8AgoZEfW/4irx53qdCgULQZlXBCn8sLH2g/KU28btAwLTJ3NLBL7NS2KSy+a+/v2s/xuCT0MrsfCoQFSnHZFoWHNnsvdumfWgy2anQwWc8PGX4GR3a8kY/W7KvHXdZxwHVjveIptX+zSf/B+DN5DeBN9qY77L1w6Jvb1A179jXaqfHyUZcz6633mcz75FyXBjZHsRFgdA7G5KR3Hxxwh7HjMRqhR78fo1JxMGqamIMps7JqQMKRM7ZyZNwBv/GoDO4w1rlbbN5n9P1bclR/1e3uursTMHRovRly+MDCsENfPHPX6+nZUIk0Pgb1R/B8VJrwGpuJHlm+wrPQ0Lx63KWSNB8R1JmdBoUt238HT7hH2XozpLyx7124bpvGAtfTQosF/IYz2nu12Sm+9XqaQQ/ZCcJnuk5tm0It4Qm/seb86Q1NbKZzjjMb+6zbJQoP/W1O96n0mhBrUMJzPIWH/rvbuzTWuzyzTtk8XWWFS151iDVsk44eljgym/TNcvLoJWnOzK//GVs5Mlzy8qZ71/ZrBmaF7BpJ7XXE0cMG67096qcdWqsr8O61PxLzSl/Jo2avBFk97lKZMoeYSRjhByP5SUEoTh8JDext/sL2L/74goOkuaRwuc1t83irRMFs0u9Vliofj66HJbe76+5QwECn1mLQ22bbgE4HwKD+IM/gxS4dzOikIB32HoYvapvG+TaH91aJ9G/cNs9DF7/3RamQ3/LfJLjo3DaPi7sJ37P7kTKAex6qIxsWZ72u17t227TfhbdbI5uBITMa/EUYW+QzsGgPbJrR/MjEXMGHlco5dhqhwOywZ7U5OyiPRkqjgJ8Szt41sc/ZvSEZp+UdY7tJ+8G+FzzTSo6xuYnx6HL2qNUAcF0GkQdjI7UP2EhNGxFEjReL5N0sgxfevh191ubTAy94pn3maKfJryyw3HxIzmpRudhmZ2I+aAmRbWesIvN/z7BaywXGVbe7w+7YfTA2r5ws5Ud+l8LcpZxxeDX1HJmc9Lr0/X+HG1nIZCI1YffNaewifsvQhUx2zQ8XaBRLFKZe7K/ZKZYoFEsUnrS9nmmvy4mJX8v2n9uqcfG+Hz+keux/rlGj46286U/8aybM/cSYzeTJ9xtx/ed4EN+4c8ElXsNpWC0O7w14XCzN+LLb7NgOmUw29FpeULGxO+f4GtRPvX17Rp1CsUX2wL8+Rr/idUQij8U+Q/haajgz3/DaXV4seFXYuzScLJnw+erUeH7O+HxO4x+Dfm8PrBKFFxkOY9eu1zCHHgtW52XKfEp9VJqc/A4E/1rUjeB1gu9O6HtzPGcfYzq1be98UFlq26tudxfdqREMBD0iry58sZ7HPX+a3GsPl7T8hiPoQS7M3qVAk/5oQnJOA9ypsVmsMWpUzFkTjl65ZbjVon+w6Ez6f/Gf7if8ZgYGdoNBfs79K34JYPz/UA94wrSJ6A8/Gfohz3Gnts1jq8VhrzuzR2msrgCQWzfBtoONeel0E+aMwiv2vBVMhU7QsEHbbpOPl16KJTC8kULn4hJYYaGBwwIWDog48z45hrQXXg1msPoRQD5yTLxR6X2q2LHzGFoE4AajZ/+7Q5vGeS6yXNmrDviHac0vUdoOhw/cSBVi+v1i2/7++BWDOffkzP204ZHvEiORq253F925gKFziuOWyT9qks8PcT5L/vJU1/2yVugE5rJZ4DLye5l4gdkvOQVD/Mhk4oxGKLKqyGlQCC3PTbSWIeO8ZrNmQ1Aei09sGhb1tRp7idegGe3xzjMKv6SXmj2f8MFd8zmeKPEEDad/D0TQ4ASli4kGyrB4tpFlcN5mZSM66T1tRdf4cX+Exbh8algtyv7Pz9njGf4ouhPM+3jlt/IjEzrzGiBvxJ1LmigxVllhiLPEcuExkxM/vBftXBjWHuWMQ/t8hXJkHm1yuTfxx4Pv1yiQvQl77+c61PYgOF8doDP+XsZlZtwTNnX6Zhnhjs2c+c5r2e4Ou2MlMggm8jL5PBmnNfXiHwyH0TKD2UxeVpqvhBpq/16WpMl5e9crdb26T//UGk3wB44e+qWwYOgbGponBUF1PY8buVHA5KQGz4vj0YKxdgHryw/d0+P1Ls+s+Ke/btd7jjMbe9RHuxw0nJOvG5QunrMXOubeNcH5U3ZqfrmnNnn+40ZlmN59XvnXxebF7rhUZjtksmt0ai0uN/Zj14hXfnPzlYRrLRglRI8V+UrsvJicHJRnHr8ZO89Zr0Iu1pmqHs+4Fg2LZxvQfrLLXq1OmzLP5l4n4/Jhf/21//3xlncHpbKGkyW71mHvxSXlgwXKvQRBXor9a0TntCZ2v7XQ96x6HNrXJUYfV93urrsVI5jiF19w7/N/g43fGv0M0PvmNwH4lR/8kG9dfgF4Pxf/5vv893d+yv98bod+/0eR1/vf7/0Z7fY/Uul1+eMf/AD+4/v86fkKhxvw6198QTHo5ToN/vvX/pbP/w6+/O53vUn/3/tzOl+fcmhCE4EGQL7iTdjNEL7xyx3iL0N1eDmaoB6XCpLLVBX6vfsJk/iL3EdznQX7NbIf6u5n+zUDM8+MyRc6tTrte/vjMorT4LF/jsPc8xbUuvSD+uCc0kQntDx7dD9KLRjt1Gmf7oUWIcx4jRoEI5hg/wr+DbfV433gNV4vHk56XU4IlVP9EWf1uDt5TcRGbdi7FN5anB1Ee+7u+VMKi9zzlImvdJu8MXE2L8w4f+qHmb+QoraFQWfGqDh0I26wwgqvrOyt+DM5OQBeESpXT67+m/g4S41gvDmYRctVV70HKfV7l26pr33y8bd/flNv/vGXX7Lys5/x95c/BuBPVr4F8IF+/mWc43+i+JMWX3yvOfH8H2Qz/GhayPjC90ssIliy6ZVF6qE/33GfV3O+NMZolUzwyAJ/Q2xWjTk2J7PQDZiGxVkNnt+WUtpc7/l32uaVDmfcgzMumQar++I3HcZX/V1t9dQHM+Namr0UeXIZvhv70zU5GDfw8aXC8YY/WEr/w3+H3/nt6J9/mbkvk9+X0QKPxOOtv0V2HW4sYD7+8kv+eeit+/+wwRL8fI9/+PJzvvF/P+UPv/GrE88HoycZWzZQb977/iFQCRhWK9QpElnMjY5g4qWwD/uzwWd/9UcUf9LiO3/9r4m/L3edAkbkJt3oHEy8If/QP//4d7/Ll+/eTH1eRESu7kZHMCIi8tV1B5cpi4jIXaCAERGRVChgREQkFQoYERFJhQJGRERSoYAREZFUKGBERCQVChgREUmFAkZERFKhgBERkVQoYEREJBUKGBERSYUCRkREUqGAERGRVChgREQkFQoYERFJhQJGRERSoYAREZFUKGBERCQVChgREUmFAkZERFKhgBERkVQoYEREJBUKGBERSYUCRkREUqGAERGRVChgREQkFQoYERFJhQJGRERSoYAREZFUKGBERCQV/w/wxH1d3co4rgAAAABJRU5ErkJggg==;" vertex="1" parent="WIyWlLk6GJQsqaUBKTNV-1">
          <mxGeometry x="700" y="1169" width="408" height="126" as="geometry" />
        </mxCell>
        <mxCell id="2ZD5GdODbhkUTzI_y2qM-20" value="" style="shape=image;verticalLabelPosition=bottom;labelBackgroundColor=#ffffff;verticalAlign=top;aspect=fixed;imageAspect=0;image=data:image/png,iVBORw0KGgoAAAANSUhEUgAAAbsAAAHHCAYAAAAmifakAAAgAElEQVR4nOzdPW/i6v4v/O++9X8LGbvae3PKCE8DSBPJJehIQcyUa60qCiNbdEmqyKN/eTQWVZIOGQ0o1V67nEFEOsKlpYwENMso5cm5O3t4Dbf2XfgB25inBPLgfD/SKIMx9mUb/PP1uy77+ts///H3/4CIiCjD/p/nLgAREdGuMdgREVHmva5gp3YwHnXQeO5ybEjWe7jR5ecuBhHRm/Vf682m4nqkIL/Rom20i3W0AC9IqdLDPhvROJAAuz03fZ6K634O7aoGS9ZxcyngR7GOlqzjRgO+VjVYagfjTy5Oqhqs5Mejn1ln210zfTk+S+thOrrADc5wqC2aK4Ws4+YyD/u0hvMVH2t0h1DQRuHYiL+xZDsb3R5y32o4t2Q0+xcQv5dwZMho9s8BvYZzS8X1qAYndf3Rz/jrX3qIHZjhcrzPSn+l7Y9l61ywPbHjRUQ0b81gB8RPVv7J7d2Ck7x/8omxU07EacLPLgoyCsYjZWU5b38NoagarLtwwWhqZUy/l2DBC5yT7/WFASptmYtPvuGL5YGxcoFxJTkxPbBvRsWB5MA8Te5fGc1Pi7ezdTvF+LOKyE6CrJ+j/KuHggVA/YC83cPRmvHZHSwK5l4Am72sowwTJ5rlH+8yEt8W5C+HGEdeTwwvqKZpfC4DgzMGOiJaaINgF6F2/Kv4Mq5G5dhb7uAMh/3HFwwwcFScnd1kvYer95OlNagYq42DrgoE53G17tUkDMALDkBeGmKsRj5j/2+Y7/4nyv6ZVxkNodg2JhuVOxkYvQCIJSfrx5D1Hq4qIoBogPDLsF/3tkVNbGdQEzXqaB900JjtJCjvJzipegVtHEiAJCUuLmz878Ee/qe/Tm/ZNib2uiVWca3uwTz1A7Cl4bCoxd9fVrObW5z/XZTSLiSWBWAieks2D3ZBSjKRuvNOulP80CxArs5/TlpVI4tKnjlVKBURE6MWCXTxNFpUNACML71pigoAFxi/N3HyXUA+UtOU9R6uxJ7/+r9T05jlRE0jxnUXb4r6AXnYaC8NdN62lJPVG5+Qtm5//wNI1JqDWpSKa1WarxEFNdFojWp04b/nHZ+rUR7maQ+iFKl1JlKFX7SUNGZqzTXgwAHQ6HqB/9za8AImlgqXcDUqwx2YmFZSttHX6A7xcdVyiehN2CzY7eu4UYF2sYSW31mkXewg17/w0lLFJSetddOYadQPyLsmTtb8uKXVUNCCk50NSHuRdi8V16My4LqQgbC8rnO3eIFrpzF9+/OpOWU0xHyojy937qS9qM0ubZ0JkqZAsNsoLNpnQY3KX9YEEvYibWiN7hBlOHBiO8ldWstdmcbc1/FRAoSwRm2jXdSQ7w5xlWjvi6UxXRMn1ToKRjxAQu/hy8CvrasdjFVsISVMRFm0WbC703BY9P9v/MREVaD4tYKJsU56cb2OLvGTflBDWbd9bdZZYmKUcHin4+ZSitfMbBsTSUAegAUZtfcipt9Tlq52cI2fc5NjNUGjPh9Q7iKB5JlOwLZewuGyHRbUlOw2CtU7NPsXyMdqZjYmtgRxH4AFyNU8hF+9lGOg4roL3CYnx2qCkZS0oc13KDkurb1/8qIICCKuuvcoHNdw6K0MzU8SXLbbEdECGwU78XMP40u/rQY22sUSjvxXje6sXWgyMGOfk3N7/v/i7XDrkPVamAZM7fGXaI+aGCUcBSdPtYPxpV8TjS8Vzf4FDlSgZexDFBw4iY4sAgDloI3CMXCtiilpzHha1qvVxAoWphFbwetN2qI2MZci9lKGS3sphkFaxfXoAjBKc0Fb1nu4OlABw0BeFGO1X1k/99sDP6BdrANdBUJKGjNWo3VNnFT7qGkP7Dkp6zh45wDuBCYU3Oh3Xk3S7/DSxjludLCNjojmbBTsnG+1sGdeozv0TmR+21ErenUu67hZ2HazAVnHl4oIYAoA8XUsabNLBsXoCderNVro/eXg6kCFnKsh707QDlOcNTiGCVcV8OPYAKAimW6Mt/FF7UeKXvNqsIlgHO9lGF9uPtmRxJfeZhdpJ0xts4OXqjQ6GI96yPnrkXN7wK+f3q0X0dtBouv2l2f1J3AvP6Ah5/BRcmB/m6U4PzptmK4C8bsXtBpIpDEXBFpZ76EsiEBwTFyvDfVqya0pwXIbn/Nw/poi/x7ofTMhaVXIAGqf9mDqdbQsGbn+Ba7V2Xdies/AR0QP7Y2JSOBROxiPhkvvNfNqBTlcj4Zr36vnDtqw35cB24a7yS16ftkmyYDkn3xv/ZeW1sNkpOBKQqTji1/zlHXcBAuTc9jDFE41WqsFYjW7INj4895agGV57YYzq2t222yzCxl1FNDB+LKDRrE+a3Mz6ijcJQOSfwEx20n4YQ+hXHrpziAt6h17Gc2w162M3Dtg6lRxM7pY0FZpe+2770XM3W6hdhZ+f8JOJrKOj+8m+HoroPzeK9th1Xtf+uvML5uF8+82xmoHDaOD3Ls19xERZd7mwS52X5RXMykUl34AuXcO7G8azrXZ2T95E3RD1zHRIic7tYOx2EbhW27+nr2VvN6bgIJr1fBulNaS92IZuLUV5CU7DICppa/mIbgT/MBeaicbr5bnv9gXILguoPcwrojzC8P8/WPBif+8Wlp/8yLthGs9l2XB/I3Pfrq2q6J1bHipScQ7ArVubSiShMnynQRJcGDfA3tp9w2G905am21n1L6A6fc6LHQiE71bSISU2w4+6vtzfXqJ6O3aPNhF74uSddzM9ZpLXJ3LVUjCFD8iE2W9h4PbaBuRlz/7MurNajHBCVrWNy5itG0wbEu02yhE2nK8VKfXCUPp65ik1kq9zivuX01M1qiTNg4kuH910NI0tLTkuztss9tQ0PYWr50rCHpHxi44VAkT20Ze7aF5l1724ILg6x2wViU8dsG06rYMn1H32odjad5lbcDRmicRvXUbBLu0ThoJQvQmc++6Ovl0i9k9cIvbp262cSNw2Cbl1TQmeg/j0YfZrRJCUAPxUndXfSwI1LZ376B+vvheQRsInmIStGs9qUUdVOZ4wRt/Ba9nvWMnRglHdzpuRkMcGCW0c95xClKrst7D1WUPzblg7S1z8r0GCzoAacFtFvYsyLkmToqlWFBVhPkHFATc9I1ZLqhtLrujhIjejAc/LmypyCO/DiQbP44tf3IPX9BEobi0Tzyu+1XIsGKBJ7coNTjXqcPB//m/Iv7HPx2Yp6VZebUaCprX8zBvt1GoBjUCL7XW6A5x1f3/Zk9QsdvAZyUM1DKwPI254aO1tmpRBxWk9GB1/cd0+RcD7uAsUuP1au2N7hBXko12sRZepFhaDYV7r+3va/gEFRtt1KEEqU9vJy1OY849LSVRrmVtdivN39biDs6evRZNRC/D3zh4KxERZd3rGuKHiIjoARjsiIgo8xjsiIgo8xjsiIgo8xjsiIgo8xjsiIgo8xjsiIgo8+ZuKv/j99+eoxxERERb9a8//x3+P/UJKtEZaPf++P037nMioi1KVtyYxiQiosxjsCMiosxjsCMiosxjsCMiosxjsCMiosxjsCMiosxjsCMiosxjsKP1yTpuRh00nrscREQbSr2pfJ6K65GC/EaLttEu1tECALWDsSo97LMRst7DVWWa+t46ZL2HK7GHwrHxgE8/FxnN/gXE7yUcLSq2rOPmUsCPTfdL7Lg4ME97EC/TjnP68VhW3vKvdnw/z5XRm0/66wyHmrVJqYmINrZmsAO8k2EN5/55qdEdQnln4qSqYe5U5Z/YYuz2ekEm7bMIAp0IQIQyGkJJ++yKdVhaE2b/AuMuXlnAe4B1LjDsNgrFuv9ChixbsIrefml0h/jobB6IGt1ZoGt0hzi4nQ/SwbGcGCUcZvwwENHLsEGwi1A7UCQAKONqVI695Q7OcNh/fMGiGt0hFLRRKKafGcMaXxDAZB03l2XMh0yfoGA8SobLeDDPBDftYmRRTdGC9chtDwJkwQ+QreM2DkY9NO9qOAcASFBGQ7iDMxSKlp8WfUCNlIhoQ5sHu6DGkDiRBgHnh2YBcnX+c1JagFnEDlaG65GCvcHsBJoU1jCLyZP6Jqk3Fdej2ppleyLJgK0OMVYBd2BiWimnppS9Gq8ftP1pte4QV2kVPH95URMjPVU6q1VH1xNht1G4/eBdAEkXGFfin89rOmQdmDsm+wIE18UkpXhERNu0WbDb13GjAu1iCS21g/Gog3axg1z/AmWkBZyIddOYAVnHzWUe9mkJR1Y89eWdkP12RLuNQjWxXEvDYTEyz7L1+EH7aEGt8dlYGg6LWhj0ptFApGmxWRvdIRQpGUi8P73jUhj4PGu0Ac4VpYaChtS2Qa8dFIBRR2HB8hrdHmr78yFNzu0Bv34u/s4QEW3JZsHuLggiAIyfmKgKlNEFAGBiLAl0ofU6ungBLbIu+Cfc+w7GYY3EgekHwsWMhUEsDBBpbY4viFzNQwAgqEOMD1IuGNQOlHcO3CXL8LY1MTFRs1tUq4tJqYnlxVmNL3U94bJlND9dzNUKJ8YLu8ggokzaKNiJn3sYXwYnNxvtYglH/qtGd3bynAzM2Ofk3J7/v8XBZx2NA+9M6g4e0YMvUlMqHD+4KE9ERu094LrA9PsZnE8XuNHvItuu4loF2qcTfEzp1BO1eJ/5Nb1HlNJ17hasJ7psC+fV0iPWQkT0cBvdZ+d8q6FQLKFQLKFte50Nxn0dMoDWcSl872ibHVRkHTejIcajWa1BqFxg7E+L/rvR5VULQ1NLpARfMFk/h/RXz2/BtHBePYP9vu7f5+bVkmFs3rmj0R3iWl0931x5cnvAr/ulNeH4sblAOYjBso4b/7sSLce4+4CCEBFt6GG9MeEFt/AeutFwQc8/T14U4To5XI+Ga9+r5/6f/xfC//gH4JpoDxwoK+6Pa3SH+Bj5f1o6LZTSOQPA5u2KO6VCqUzxo3iHXHjxYOG8aiHacefQAJAS46PtYfF9LiP3bv1SyHoPV+8nOKneQ6mIK9OOi2t2iWVWRK9XJu+xI6InsHmwi/US9Hr+FYpLP4DcOwf2Nw3nkY4V4e0EfnBp6DomWnqwlPXeRkUMA3FKWTbtnPFs1A/YG3TQAtCMTvf3P1akcr0LjLuUd/YhCg5S3wpX0Qt7Vn4ZnKFQtSDrPeRdEycr9ptQme+NGbbxCd6tKvFbD+q89YCIdm7zYBf0EgT8E+8Q4+C9tNqdXIUkTPEjMlHWezi4LUV673nVrC+jHuys3ev2UEYdhwBi1bZID9Xl+8irvU1vg/vdSpHekzXkISJ/OcQ4uE0hbEuL9HAtxp9+8qUCmKfz9+zl3gFwZlOW1uyS3w/eekBET2SDYCeiHA1saYToTeZeS1Pjs1cLiXVVr4gA0lOJwuUQN2m1ljXu03OdpW+/fla8h+pCat27FSRaCwtq5K6Jk2LNDzgqrkeRoGeldCDy76ucGGkBdh+iAEzv17w6EQTkgdm9mbz1gIieyIMfF7ZU+MgvFQeSjR/Hlj+5hy9oeimshVRc96uQYcVPgiva06JtdmnvzdrwbLRfegpzHcmbzu12eEHROJAw+V6HFX1kmGvipFhKBJYguHlBL3mRMXsW6axmONcempra9J+PKQCz/X2PKcq89YCInsXf/vmPv/8nOuGP33/Dv/7893OV503iPici2q7keZVD/BARUeYx2BERUeYx2BERUeYx2BERUeYx2BERUeYx2BERUeYx2BERUeYx2BERUealPkHlj99/e+pyvHnc50REu5Ma7Pg0j6fFJ6gQEW1XsgLBNCYREWUegx0REWUegx0REWUegx0REWUegx0REWUegx0REWUegx0REWUegx0REWVe6k3laRrdIZR3Jk6qGqwF88h6D1cVwDyt4XzRTCupuB4pyG/0GRvtYh0tAFA7GKvSwz5LRESZtHawe1pOLGAuDbSyjptLIT7NbqNwbKxeTdpnI9N/vNAg2OgOoUjOIy8qiIjejq0GO0uroaBtc4kA1A4UCQDKuBqVY2+5gzMc9re5MhnN/gXKAgDY21zw9sg6PjLQERFt5IXW7HxBStKN1+q8dOkUPzQLkKvzn5MUjEfKmiuxg4Xi5jIP+7SEk6qXjn2R9gUImOIHAx0R0do2D3aJNrGJUcKREX1vb1brCF4bE0hqGV7C0K+VQMfNZTAtsRwA2NdxowLtYgkttYPxqIN2sYNc/wJlmDgpLm47XDuNGWVpOCx6/02Ln0RE9HptFuyEMq4O2igU6wD8GpY6xDUSgSpGRPnTBCfFEiz47U2XQ4xhe4EsmKZ20DAibWR3s+AD4ycmqgJldAEAmBhLAl1ovY4uc0GWiIgyZ8OanY12pMZkaU2Y7y9QPlABY1HEcGDqs+DUurWhSBImkcDW+mbi42UeORkIZhQ/9zC+FGfrLZZw5L9qdIcYq97/JwMztjY5t+f/z8BRMXtRrHHgpXUnz10QIqJXZLP77Oyfid6JFu5/AXiXg7zuMu5cuHDg3CXfECHuz14532ooFEsoFEto2xKU0RDjvg4ZQOu4FL53tNUOKi9bozuEgjYKS27/ICKieS+7g4qvdVya3UM3Gs51WInKiyJcJ4fr0XDte/XcwRkOtZcfPlrHJaA7xLiLzdskiYjesM2CnV+Dm4UFFQcS4A76u6lpyNFOLF7HlkJx6QeQe+fA/qbhXJvdAxHWiPwA0dB1TLTXWTtq3dpQPiWPAxERLbNZGlMo44s+S1g2ugrycGD3d3TatTQc+unKwukE0uUQ45H/z09pxshVSMIU95HiyHoPB7elSE3Ia+z7MuqhuXbu9YURhA2fMENE9LZtVrNzTdjiBcajYMKuHrUlonw5xHjZLEL0JnPvXrnG5zIwOAvL492PJwKYdWiJLeJyiJtXksIkIqKHWzvYhe1mWPKIFKOOgrHkNRC7ny0+LbrcDZ4QEj7yS8WBZOPHseVP7uELmigUly1ExXW/ChlWLCW4kyfBEBHRs3mBHVQ2vGUgEjxbxehtETUcrrOu13YD+Z0LF/HbNIiIaDkO8fPaWBq+DoDy5StucyQiemIvsGZHqzDNSkS0GdbsiIgo8xjsiIgo8xjsiIgo8xjsiIgo8xjsiIgo8xjsiIgo8xjsiIgo8xjsiIgo8xjsiIgo8xjs6GWTddyMhrhOGbWC3goZzf4Q4+42vgQqrkdD3Ogv41l7st7D+JHDjTW6C4Y8oxg+LozW4w+kOx2Y2KvkYcdGpVBxPVIiY+xtMGrFE5kN9xS1qyGqds3b33sDE9NKGTBKOEp9dnr0uPjbuvA4Jo+hzzVxUt39QMfpxweYLNy2Z6R2MFal2esn2kePonYwVvdgDqYoVxD7LgjA69iGR2Kwow04cO6Bvegk/weDwRkK4biAKq77OuQX9+OJB7dGdwhl1AFeZcADpvf3a8yVduGRchx97rOO7/jyLz68oAyYp6XZPlU7uNHlB+23uefcBhcjOwnyU8S+Mv7QarLew9X7ba/r5WEakx5FruYhuCa+xn7oBo5eXKCb1zpuYwIJH19ISoteOhm19yLcQTN+8WDUOQD0K8BgR+ux7jHFFPeG/zf62xaE+fRXkt/2Nvb/RdvgvHaL2Xur2lOWzh+28XltM5u1h/htQ+Gy45/11ttBQ+147wftJIlti7efzNqbGt3IPH77U2xaot1l8Xt3cFwHzl3wN77tS/ffsuO4cr900FgwLWw3CvZNynHeqqX7HF7absFxDCzb98sI4v6Cd1LaA9OOiazjJiiT2gnLJ+s9jP20Yl5d9TuJHos1tvnOheu6mAR/19zWLGGwozUZOCrW0Qr/eqz+BC4kKGk/Pl/wI54aJRSK3r/b3CxQKGiG0wuGDaFysfgkueb8efUDboslFIpL2g7lHPYATO+D0e3rgD4rY9sWUb5MbpcE5eCnN09VgwUZzc/A16A8xTYmQhlXyc4UkoKDW3+eUxOupGA8GuKjczabJpTxxT8pynoPimSjHSxXB2rhIi2cV2s4t4K/C7YvVfpxXM7CeTVRC1brKAsOzNPIMoQyroJ9UyzhZOAgr+4i4K3Y57KOG1XCJPy+NYFqvBBC5SJ+PCL7fjELvb8cQFIWdJYxcGsnguG+AAGA8L46C6b7AgR3gl7iuFlazSsLEJbdS2V6FxZXlens+1D8iVy0vLF9fwbTFVHWIgHc0nBY1WAFf1dsaRYx2NHjWBoOT00/4KVdcapQKiLcwVmsDaKl+T84S8NRNAVkdGC6wF5uwYlnzfndQWfFiVxGUytDcE20jWDR9VjgaH0z4WIP8UU7ML9FG1MsnB9HTx4G2gMHeJeL1xTs9mz7rT5sF0A0/Wtp+BE5UeZFEYhegVsazle14VgaDoulR6XUhMrFglqzt11C5RxNWcW1KmFiJAOtjfbxrJCW1oTpAvmDdaNd8B1aUnvxlrx8n+8LEBCp8cLCuRbfebHvY7DvowFpAUur4WTgB7xIDT3QurUB6UNY7saBBNe24UayH40DCfh1v37ASbuwgIHz6HF2TZyE+97C+XcbEPKoMUMfYgcVejy/oTvopaaMhvgYdHSQc9iDA7u/5Ked7N0GAOI+sOh0sMb809T8nFc2JXhpt1E4jp8EG90hlMSip7FFp6X+0noyTpFfuAUW7n8BQMoJzz9ht25tKGoZV6Pyk/ZIXNZBxdKaMN9foHypePsuWSb7Z+ICw99Of5tWn9w36aCyZJ8bPzFRFZQvhxinHOPHCjqVeN8VBeNRbdYJyF/3gQq0DBUHkgP79CfEy2CajNw7YPJ9/TLJuT0gpSZIm2HNjrbHqIfpK68GsPojje4Q41jK6Qymu7354yJpwWIpcRL02ltiqUM/pbSU2sF4pCBvt2Ppu0fz92XbTm+/eR5BkH5mK/e5gSM/xb2oBrYNreO0lOEdnCDTIOew507Qs7z0Zv5ABeQqJMHG7Uu7neINYLCjrfPa8US/snWPKURI1bTIp+JASqSUsA9RWLTkTeffgPoBeSRSRX57yzKNAymRQvJTkFsyO6Fukg7cEbXjXQz4bY5zwTeZug2O11/9rbYRrb3PIxdf0dTidvnteGGa0nstvK+iUc0D/ra3bm1v/+wLEOZqwCvWcD9lSnILGOzoUWS9N9f7T67mISC4eo229czmaeg6ZP8qONqg3+im3Ngc2nT+Ddy5swANAPDapVaZOE68N6ramUuDPkSju7jDz0Lr9MZ8KL/ThzvooGVp+DpwkFcTZUx08vCOjY0fW+6Wv3Kfq50d1YJlNPvJnp3e7QjRFK7Vn8AV8vj4HrP0vfETEyGPL58kuLPGxHnWPaZItEEbnfkOJ1DR3NEtM7Ley+QTWdhmR49iaTX86A4xHkUmuiZOirMOBJZWwwl6uLocYuxPmxgltABYuombSwXjkeJPP4P57gLl9LXhfKP5N9oQfB3kcaUOMVYBwKvB7F0uX3LQjhW2BdptnAz2cFV5XHFa31zcrGhf3AWhcoFxrOwOzNMexEuvM8+JH7gsrYdJRYHS1zGp+ndFuyZ+4Bzj0UVQ6J3cJL5ynxsdOP3gOG6zHBbOq/veLS2RqW7sgQrwOyCVUYaJr+FkA7e2AkVyYC5rv4aB9qCGK/84eO21Fs6rZ2j2L3A1Cr6PNtrF3Xwf8qII969m5nps/u2f//j7f6IT/vj9N/zrz38/V3neJO5z2g0V16ManCd4dFujO4TyLvuPnMoi7wkqE//YPd13ZteS51WmMYmIyCPnsLf2wwZeF6YxiTJN9Lrgv4LnTtITiz0I2r+j09JwWHzOQu0Ogx1RZhk42lG7zqYWjWoAvLCRDdLu4fQ970OydyC4P/aNYLAjokdrHZeW1hrnnu7/Uhn1+ZvlKRPYZkdERJnHYEdERJnHYEdERJnHYEdERJnHYEdERJnHYEdERJnHYEdERJnHYEdERJnHYEdEr4/awXiUHG7nYRrd4QsZ0kZGs7+bgWaJT1ChdfnP0ZsOTOxV8rBPaziHNw2LHqMUfOYlPQ4qpOJ6ND8W3mt9JJT3OK4pzMEeyuET7Oc1usNw7LfgMV3BiAXmrzLKmA0ltOgRX0/zeK/04wP3BY+sMPeosed9HmnacY0e09f6XX8oBjvagAPnHtgLXgbjdr2vQoY1dwIKBnH9sY0T444CZ+wHL+u4ubzADV7pScB1cT87OotnSzvJ/brHfercz3vCfh0nZBnN/gXKgo12MfrYNBXXow7wnA/gThxX77FtXnm3MMbwq8I0Jj2Chd5fDiDkUZvLAalQKqI3svVzFO0h/BG4hUp981HC6c1qdC9QhomTuaBm4IgjTbwYrNnReqx7TCHg3riHqArheFfBiNVSVQasyBW4+gF5JEdlDq6Ag9cptYZYKsiBeVpDrzpLvQj+SOKzVFpymcnagP/+rzbaUKBIwftrbncyNRUdMTysbbYBVfG21x/0MpouBBKpP7WDsboH05hAUv0hVoLPIjLsSvJz8uL3rPspIN6jdS9AEe/9Wra/7Vie+ps4DlzcYQLv7yb7Jbavo9P6VX/fnMH5FDk+O0xDLt3nye9J2sjvKd+9lQOYyjo+Sg7M03W2adV3NV1yu5JlD9KV7b/yUCpi+P6DjmuGsWZHawquUpNXqwZubUB4X4018DcOJMCdoBf+jlVcjy4g/XWGQrGEQrGEti1BGXXCWlSjO/SCwGnJn6cJVFUv9XJqwoV3AisUg5OYt8zyr3a4zEKxjWnlYr6RX1JwcOvNs+zkkhdFwHUxCcp88HO27FMTrqTgRo9XY/PqB9wWSygU/ZOj2gnXVSiWcDJwkFeTnSlElD8BX8N94Y87dyngRzgNyKvB/lFx7bePBsu9zUU6VRh17wQY/N2ApdVwqFnh37UYdZzEasEymp8kwG7HlpFXzwF9dmwmQhlXu+gMsmKfz2pf/jy3ufjxEMq4Co/1GUxXRFlbXU4vVb/OYKcbfFdnS0ez748AH37mDOY7Zb5DjVDGRzS9efzj/6DjmmEMdvRorVs7kcpUcSAB7l/98GpX1mvIu0cdUFQAACAASURBVCa+Rn50rW8mXEg4UOFfIQMTI3o1beFcW3zilvUa8rDRjp3cDRwZNiDV4icz10R7VQxQO1AkYPI9uEo3cBRdtqXhhw0I4n7sY3OpWqMea1e0tB4mEBH/mANTn9UGWrc2AGBizC4kvP2zh5wMfwRpYBo5q7a0VbUJC+fVEgqPqklJUEZDjMN/s4sTb7skKF0Vsn7uBZNEoHUHzcjx9I9Nato7nVC5iKx7OHehEVq6z2Xk3gH4dT/bD4YWr7W50bJbOP++QTnDi6PFNvquBtQ6ykL8ewJYONdNuEIZSixG2vjBgLYU05j0eMZPTNRIKlP94P2wo1f4oggIIq5G5bmPTwFgX9i4M0teFAG7N98mcufCheSd6IIiRE90EULlAuNK8MqBeVqKnwQTqUMAgJuDHFn0NOWyPq0no5uLfiqtzHtw5rJN/gnb8DsDqUOMPz1lj8RlHVQMHBkfMFYVXKWm8hzY/UQp047NEpt0UFm2z3t/OShXFIxHtfXSk1u20XfVJ+f2EtkRn3WPKYC96PdpjYD71rFmR1tgoD1wwlRm40AC7J/zP2w7msKZ/XvO2xLcSFowTEP6ZL2HcSJ12LZXLdFLPV1VEEnHtrdwIvJraafeVf3V6IXcG3bnwn3uMqyxzy2tNktPXg63do+edT/dqKZKz4fBjrbC6k/gCnnUZC+FObmNR7CJ4wDSh8W9HP0r3IMN7qdduEy/lnj7qCAqo/ZeTLRB+emwpR+rQhIS6Vg/BbkVlobDYgmFDdOBuyGjqXkXA207rY0rmbqd3Y7yuGOTLMa6+9y/YCi2MYHoZSIey/iJCUSUPy//4j7ku7owkMo57KXVmmkpBjvaDqsP2xUhaV7bRPLHa/UncP32nRkV10HtxG8Pm3XIAAAZTd2fP5a68SdF2oxiy1SlLdzyYOH+F4B3ufAELuvnsZ506R9LltMLCKs+tpKs43pRe9XiD3lP5NhRDbDR9e4t+6FZaB17nU++zHXeiRxPWceXXdyOsnKfy2h2d1ULNnDkd1ya38/efXYNPPC7anRSOsr422b3tpiKVXE9GuI64w9uYZsdbUnQLiLCHTTnf7yWhsPiPa5HCsYjxZ/otQeFnTSOS0B3CGU0hDeH1/3bY6A9qOHKb2PzupUbOCreodm/iCzTe+9wCzWH1nEbByMlbGd0B2do2xdQltbugnasoC3QgXnaxuRSeVztztJw+3mI8SiYsGbX+EeTIsfDZ7dx4tS8zjxhh5rZ8bm+L+HIb3ucGD9xEPn8bm4SX7XPLZzf1jEeDcNPbLUclobDooZGd5hok462dz7ku+rVRJPLdQdnKGxzH8o57G3r4Q8v2N/++Y+//yc64Y/ff8O//vz3c5XnTeI+p6fS6A7x0XmCp5K86EfFvXX+E1T+8r4Hst7Dldjb+JaVly55XmUak4joDcuLItz5bsCZwzQm0RsjxFLBz10aekqxB0H701rHpTfxSDMGO6I35MWc2NLuXwykPcrr2SwYfQF42SMwLOA9CPq5S/E8GOyIaPv8ThsPfv/FMHBUfCmBlx6DbXZERJR5DHZERJR5DHZERJR5DHZERJR5DHZERJR5DHZERJR5DHZERJR5DHZERJR5DHZERJR5fIIKrSd4iv3AxF4lD/u0hnMseeQT8CofpwQAUDsYq1Ji4lMNqbNt3hPuy79MmO/K4ZPu50Ufi2WjbQBKsA9e1OO7iB6GNTvagAPnPvIyGDW7GIz+7I+1FUzbUqBrdHc3AOliDszTUrgtJwOgfNlD81lHBn84N3bgFgm2uY6WUUehWELb3nnRiJ4Egx3RGiyt6Y0a/TnjwzkTZRSDHa3HuscUU9wb/t9Nq2xqB+PRMPx3o8ux6eHr2LT/hevREIoEQCjjajSr4TW6Q4y7aso6ZrUvWe9hPOqgEaw7Ujv03puV53rjGCaj2R9GlhGv9S1et4rrUfRzHTSSy+yq3vYF8/jbGZuWqOnGtye6TAv3v4DpveH/tYIP4Ca534kyjMGO1mTgqFhHK/y7PlnvYawC7SC9eWoClQvvRGvUcTJwIFTq/glaRvOTBNhtHGr/jaMgleaaOHlQalSCcvAzllZtdIe4ej/xllcsoWDYyKurAt4+RAHhIJeyXgf0WZqzbYsoX0aDzKJ1f8BtmPo9g+lKUJIpWknBwe1sX7mSgvHIG2E8nCaU8SVywXBVQSTt+hO5SBBrHXvj1gV/id4iBjvaMRVKRcTEiARIS8MPGxDeVyEDsLQeJpCgdFXI+jnKMHGytQ4RDsxvkWXJOj5KDkw9EjSNDkwXyB8sjnaNroI8bPzwO3dYWj3WWaX1zYSLPeRiUSuxbgCt4+iFgoXz7zYgCPHx0uz2LChZfdguANfE16BjSbD/xH1vk3J7QKy2beA8tRNKhN/emt5ZhSh72BuTdkvOYQ+AoA4xTsaSYKhkGDgyPmCsKriSHJin2+zBmUi57gsQIEK4HGKcnPVX9IWIcnQe18RJMV6uRtdPsUbXtg/MZkpL9/q9I2NdWB0vSKZutJeGBO7n336X8y4W+hO4lTKU0RAfB4t6WxK9bQx29ATW6LZ/58KFtPg2hq2y0V6Zil1W5qCbfmQ5/q0ZSwWjc0cDp9rBWN170FaE/IFQZb2Hq8oFxhWvVyyDHtEM05i0W9Y9phAhVZd1hJDR1MrA4Mxr+9LWvM3Ar9lsxA+qSzKWq6kfkIcD8zQSMPeFlYFaruYhwEY70u7opSC3w9Jq4e0CQYqYiDwMdrRjBm5tQKicz/VWDDqENLoXKAtee1jruI1JtPMFgInjzLVrtW5tQChDCYOWiuu5G8FT+G1geTXemaTR3eAeujsXLkT4TWZrr9u6nwLRdj1Zx5eKuOZKF5P1zub3/7E3Jr0xDHa0c63j4KbsWdf5L2jiyPCCniIh0oHFQHvgQKhchMEw7MAS7XJv1NG2gbwaLPMDbo117oC2cF4toW37y/P/Hdxu8HQUS8PXgRNf96k5a4JcxKj7vTb9z2nA17XKvKo4PyFG9q3y7pU+uYZoh/72z3/8/T/RCX/8/hv+9ee/n6s8bxL3OT0/FdejGpxEO2WjO4QCPi6MXp/keZU1OyIiyjz2xiQiX3C7RfJB0M9bKqJtYLAjInhPyEncAM/MJWUI05hERJR5DHZERJR5DHZERJR5DHZERJR5DHZERJR5DHZERJR5DHZERJR5DHZERJR5DHZERJR5DHZERJR5DHZERJR5DHavhoxmf4jxKD7oKBERrcZg92pEBh3tqqtnJyKiEIPdKzNxnOcuAhHRq8NgR0REmcdgR0REmcdg98pY91NA+sBOKkREG2Cwe22MOgoGoLBXJhHR2hjsXhu1g7EKtIt1tJ67LERErwSD3Ssj5/YA+ycDHRHRBhjsiIgo8xjsiIgo8xjsiIgo8xjsXhUZtfciXOfuuQtCRPSq/NdzF4DWJaPZv0AZJk4067kLQ0T0qjDYvRreg6CJiGhzTGMSEVHmMdgREVHmMdgREVHmMdgREVHmMdgREVHmpfbG/OP33566HG8e9zkR0e6kBrt//fnvpy7Hm/bH779xnxMRbVGyAsE0JhERZR6DHRERZR6DHRERZR6DHRERZR6DHRERZR6DHRERZR6DHRERZR6DHRERZd7a49k1ukMo70ycVDUsGjpU1nu4qgDmaQ3nDx5fVMX1SEF+o8/YaBfraAGA2sFYlR72WSIiyqQXOnirEwuYSwOtrOPmUohPs9soHBurV5P4bKM7hBKNk+suZ6f84O8uv9AgIqLFthrsLK2GgrbNJQJQO34AKuNqVI695Q7OcNjf4nrQRqEYBDcvyIy7eNaAJ+s1Bjoiokd6oTU7X5CSTJzsvXTpFD80C5Cr85+TFIxHyporsb0/Rh2FWEwz0B7UcFX5gAaMZ0tz5kUR+NVjoCMieoTNg12iTWxilHBkRN/bm6Ugg9fGBJJahpcw9FOU0HFzGUxLLAcA9nXcqEC7WEJL7WA86qBd7CDXv0AZJk6KS2o6LyL9SEREL8VmwU4o4+qgjUKxDsCvYalDXCMRqGJElD9NcFIswYLfLnY5xBi2F8iCaWoHDSPSUeROw2HR/7/xExNVgTK6AABMjHVSeut1dJkLsiEZtfciYPfYeYWI6JXbsGZnox2pMVlaE+b7C5QPVMBYFO0cmPosOLVubSiShEkksLW+mfh4mUdOBoIZxc89jC/F2XqLJRz5rxrdIcaq9//JwIytTc7t+f8zcFR8aO1ORrN/gbLgwNSfs4ao4kAC3MHdM5aBiOj12yzY2T8TtRwL978AvMshEqeWu3PhYg/O3PlbhLg/W4jzrYajaG/M0RCK33bXOi7NyiHruKlstBXLhWna574lwauZwijhkBlZIqJHedkdVHxhcFM7GI+Gcx1WovKiCNfJ4Xo0XPtePXdwhkPN8ju+iC+kzc/AURG4Hq1KExMR0SqbBbu5GlyQZuvvpregHO3E4nVsKRSXfgC5dw7sbxrOtdk9EI3u0LutwA9gDV3HREsES7WDq4q4pA3vORi4tRV8zK1dbyYiohSbPS5MKOOLLocvG10FeTiw+zs6EVsaDoslFIolFE4nkC6HGI/8f30dcnJ+uQpJmOI+UhxZ7+HgthSpqXmNfV9GPTQjC2gcSIDdfkGBbkYQ95+7CEREr9pmNTvXhC1eYDwKJuyqXUtE+XKI8bJZhOhN5t69co3PZWBwFpYnTEti1qEltojLIW4GZzjUgNw7AEL6/Xkvq7ZHRESbWjvYzTqFLHlESvLG7LkbteHX1tKmRZfrrP98zfCRXyoOJBs/ji1/cg9f0EShuGwhKq77VcjQcF4trbEyIiJ6jV5gB5UNbxmIBM9WMXpbRA2H66wr5QEsL8nEcYD3G/R2JSKiORzi54WztCZMlHGV1kZJRERreYE1O4qzmGIlInok1uyIiCjzGOyIiCjzGOyIiCjzGOyIiCjzGOyIiCjzGOyIiCjzGOyIiCjzGOyIiCjzGOyIiCjzGOzoZZN13IyGuE4ZtYLelkZ3iPGog8YmH9rZ90dGs79gqLGlxeltvg20FXxcGK3HH0h3OjCxV8nDjo1KoeJ6pERGht9g1IonMhvuKWpXQ1Ttmre/9wYmppUysHAIquhx8bd14XFMHkOfa+KkqvEh5C9AozuE8s6E+auMcjAYtdrBWJW8Gex2ZNxOSmKwow04cO6Bvegk/+SJwRkKWnBKVHHd1yG/uJNkPLg1ukMoow7wKgMeML2/X2OutAuPlOPocwdnONRe1lELzIYZewl2+cza4GIm5Vj8ukfsqPvDqDW6Q8yPxElRTGPSo8jVPATXxNfYj9LA0YsLdPNax21MIOGjzvEknpeXErxJHgdZx82zp/xUXDONngkMdrQe6x5TTHFv+H+jkUwQ5tNfSX7bydj/Fz15eO0Ys/fmTnpzi1oyf9hG452kxqMemmvHMr8dJlx2/LNhe4va8d4P2msS2xZvx/GX2VX9Nif/X9fbAbFpifafxe/dwXEdOHfB3/i2L91/y47jyv0SDTzxaY2uX8Zg36Qc58dKa+9KfheC4z6/3sSx7T6+YOE2J6dFvz+qjpu07+Ci34PawdhPJwuVi9j3e+I4cJ278C9thsGO1mTgqFhHK/zrsfoTuJCgLLkCl/UexpdlTI0SCkXv321uFigUNMPpBcOGULlYfJJcc/68+gG3xRIKxSVth3IOewCm98Ho9nVAn5WxbYsoXya3S4Jy8NObp6rBgozmZ+BrUJ5iGxOhjKvkyVRScHDrz3NqwpUUjEdDfHTOZtOEMr74JzZZ70GRbLSD5epALVykhfNqDedW8HfB9qVKP47LWTivJmrBah1lwYF5GlmGUMZVsG+KJZwMHOTV3dWKvHZYwDwN9v0ZnE8p7Y4A8ur57NgaNiApWy9XozuMH7NiD6JahjA3pwRFm31n2jaQV/3vmVH3vkPwUsqFYilMZVpaDYeaFf6lzTDY0eNYGg5PTT/gpfWWU6FURLiDs1gnipbmpzktDUfRH67RgekCe7kFtZM153cHnRUnchlNrQzBNdE2gkXXY4Gj9c2Eiz3EF+3A/BbtBGDh/DiasjXQHjjAu1y8l57dnm2/1YftAoimfy0NP2xAEPcBAHlRBFwXk8h2n6/qe2BpOIycHB8iqE3M15q97RIq52jKKq5VCRMjGWhttCMdJCytCdMF8ge7iHbB96oZKYOFc92EmzJ3rKz+d2ar5ZJ1fJSAiRG9gDBwZNgpM9toR9L83vdMwk52E4XYQYUez9JwWNTCnmHKaIiPQeO6nMMeHNj9JSfgaI+ygLgPLGr1W2P+aWp+zitb2JCf0nvNuzqPf2oaW3Ra6i+tJ+MU+YVbYOH+FwDcz7/vB8nWrQ1FLeNqVMZkYW/L7VvWQcXSmjDfX6B8qXj7Llkm+2fiAsPfTn+bVoVgoXKBcSU5NS1YYPH3yrrHdMV6dmJfgAAbP5L75M6Fm9oViJ4aa3a0PUY9TF95NYDVH2l0hxirEibGLBVlpl2aP3D+uGiKqZQIdF5bTywNdZpeS4gJ2ljsdix992j+vvRSXNtv/3qYIEjvRpC2K2yy/4nWxGBHW+e144l+ZeseU4iQqmmRT8WBhESKcx/ifCPHA+ffgPoBeSTaoPaFlPaWuMaB5N2LFgmceTF5P9/DtY5nAX036cANqB3vYsBvc5wLvsnUbXC8/urvqGeu/x2LrfLD6s5SO5NMefu9lZ+nMJTAYEePIuu9ud5/3g/cxq0BxNt6ZvM0dB0y7uC4s3YqAGh00zsYeDadfwN37ixAAwC8dqlVJo4T742qdubSoA/R6D6gy/06vTEfStZxo0peW6il4evAmXWqCEQ62ADBsbHxYxedKfw2zrwa7em43jHbCaMD0010aJJ1fJl7kME65r/nm1lwK8cbxzY7ehRLq+FHd4jxKDLRNXFSnDXAW1oNJ+jh6nKIsT9tYng3CFu6iZtLBeOR4k8/g/nuAuX0teF8o/k32hB8HeRxpQ4xVgHAq8HsXS5fctCOFbYF2m2cDPZwNdf2tJnWNxc3K9oXd2G+3cyBedqDeOl15jkJewb2MKkoUPo6JlXNm9U18QPnGI8ugkLv9Ak1reMS0B1CCb9XNtrFNjDa/u3V+fB7EaynnpjDwnn1DM1+5Lvgmjg5NfHlctPLMQvn322MVe97vvmN/vsQhRXt5G/Q3/75j7//Jzrhj99/w7/+/PdzledN4j6n3VBxParBeYJHtwWPsnr2R4sFj0N7wk49S6kdjNW9nT8+z3uCSuQRYp/c5z8Wzyx5XmUak4iyY1+AgMiN9s9Mzu0hvQfvjtf5K6Wn7xvHNCZRpokoXw4xfrUPvV6s0R3i4DZSg/PbFWG3165FpT8gPLDJPpPR7J8DeqQGp3Zw5d8LuLP9HnsQtPfH0moo7Gp9rxiDHVFmGTgqvoRc3vKg8tD7CFvHZ8j1o21p/u0LG7RvWVoNBW3zdacsCefVfe8RdZGpO79H0n8QNK3GYEdEj7ZqRILtBZXYUnc48sBDvJyLC5rHNjsiIso8BjsiIso8BjsiIso8BjsiIso8BjsiIso8BjsiIso8BjsiIso8BjsiIso8BjsiIso8Bjsiep0eNH6fN9bbuLv9gXBlvYfxqBcbt3E1Fde7GoNwK3a3v54aHxdG6wmGThmY2KvkYZ/WcA5vGhaNt/XShluJUXE9mh/4dfOxw14G79mTU5iDPZTfTxYO79LoDsPBZYPnNgbD85i/yihjNm7eoudZ7vx5j7Q90QdFA9j1GIOrpH7XYg+z3t24jazZ0QYcOPeRl1YftgsI76tIuy6Nj1j+SP5V/PWWLzDdwRkKxZL379QEKhcv+Cp7BdfF/eq5wm2OBaxf9ws+a6Md7B//34sJdJaGw2LpxVycWFoNheJuxq1rdIcY9/XU31k6v0amInH8fuJglBhh/qklv2tGHYViCW17t6tlsKNHsND7ywGEPGpzv0IVSkWEO+i8nmFlLA1fBw6ESv15TwbkXe2nnJQb3edP+TW6Lz+t1+heoAwTJ3O1OANHGRvqaV0MdrQe6x5TTHFv+H/9q1dL62ECEVI1cQJSPyAPB3Y/epnrX22Ogn8pV5hqJ/K+1/4h6z2ML8sQAORV771ZDS+5zOTJcNbm0Oimvb9CrDyJk1xY2/TaXaLtNcG6gn+xGqna8eZVvc9HtzVYZurnlrxn3U+BX/do+X+t6LavqBFMHAeucxf+3WS/xPZldFq4bxLHZ6PaycpCpLR3Bcditr6G3ktdr9fGtuS7uHFxOvNtdoljFn4PU4Jl7DsTltfbHkUCIJRxtc4+lHV8lByY+jojla/6/SxaRS/+u0iUyXu/g0bw+/Hff9B3bUsY7GhNwRVh8srQwK09n8psHEiAO0Ev/LWpuB5dQPprljZs2xKUyEmm0R1irO7BPA1SLk2gqnrpoVMTLrz2olkqzVtm+Vc7kqZpY1q5mD+ZSAoObr15lqW98qIIuC4mQZkPfsbSnK6kzJ0M8uoH3BZLsxSW2gnXVSiWcDJwkFeTHRdElD8BX8N94Q+yeingRzgNyKvB/lFx7bePBsu9zUVOMEbda+sI/m7A0mo41Kzw71qMOk5itWAZzU/ewKnRZeTVc0CfHZuJUMbVVgNelN8Oa0e+D98FKGnj6EkKvqA5KxckKNuurcmzNu3wu+DUwjbTKKFyMfvOnJpwhTK+6DK8352f4nNNnBRLKCxojw1XW81DWGt09A1+PxGN7hBXlWksPdr+VcbV3AWDBCX4/fhlftB3bUsY7OjRWrd2IpWp4kAC3L/64Y9S1mvIuya+Rr7grW8mXEg4UOFfjQITI9rmYeFcW3zilvUa8rDRjp3cDRwZNiDV4sHFNdFeFQPUDhQJmHwPTiYGjqLLtjT8sAFB3I99bC5Va9Rj7VpB7Tf+sfiVd+vWa7CYGLMLCW//7CEnA5Bz2AMwjZzBWtqqK3dvvLdVJ8flJCjRK/jICc3bLi9IyPq5lzZLBFp30IwcT//YpKa9Hy/1+2DU09uCYkHZQHvgANKHraavG5/LEBLfeUtrwnTn53UHZ7PvTPA9W9AWvpbwgm2xjX4/sw/5v9N4KrR17F0wfIxdCDowv72UBl72xqRtMH5ioipeKtOy/BSmjXb0Cl8UAUHE1ag89/EpAOwLEGDjxwa/jbwoAnZvvv3hzoULyQsuQRHC1F6cULnAuBK8cmCeluIdDPyrcyH6ITcHObLoacoldFpPRjcX/VRamfcwn9nxg6TRh+2WUVaHGH8yF/a23L5lvfcMHBkfMFYVXEkOzNNkmZJpbKQfm4W8QKskprpO+tyLvg8TxwHerVrXtsnIvYtf8Hks3P966rKk2+j3E1j4O72D4wL52IfWqV0+HQY72gID7UENV++rkGEhf+Cls+Z+RMu6FT9Te/+yWw2CgOUOzlDw5/G6Ti9booxm/wJlIRo4vfTa3qNK6o/K7Qffq1HZS2s9WdBbwD8xCqvnfID5QNvoDvFxJ+vKDut+ClS82rP1goLNc2Mak7bC6k/gCnnUZC+FOUncbzBxVqSJ/JPmwQZBb+Ey/avPx93yIKP2Xkyku7yr9eUfq0ISEulYPwW5FX53+8IO04Hrk9HUvDapti2irCXb4pKp2y3fjpLmXS5RBv84PpNkyjtI8e+U8RMTiCh/Xv5jetDvZ+HvdB+iMP+7f0kY7Gg7rD5sV4Skee0Aye+81Z/AnesEoOI66Kzgt1PMOmQAgIym7s9v3WMKYC83O5VF24xiy1SlLdzy4KebIidPWT9HeVUVZq6cXkB4dM1H1nG9cZf79XpjPlSje4GyYOOHZnltNmGnipnY8ZR1fNnh7Sitb17HjqvI92GtY7YTFs6/20CiQ1OjO/8gg3VMHAcQhDU/a+DI70w1f+xVXPvtrg/6/aT+Tv3tWqddfG3ed3ebt5kwjUlb4t1zV66IcAfN+R+KpeGweI/rkYLxKGiF8dJUYSeN4xLQHUbaaRyYpzX/XT9V6rexeU/xMHBUvEOzfxFZpvfe4RZ+dK3jNg5GStjO6A7O0LYvVqQxg3asoC3QgXnaxuTykWlMS8Pt5yHGo2CCt292cQNzXEq7md0OexXOOirMjs/1fQlHftvjxPiJg8jnd/qEGkvD4Slwczn7jrmDM5wMznH1fsvrkpS579xRch6jjgI6ke+CN18b8+2Qq1haD5OK4h2LddLXlobDoub1nIy1k0dTww/7/bSOS5joPVxFvxd2G4XqNmt1+xCFlDbfR/jbP//x9/9EJ/zx+2/415//3toKaDXuc3oqje4QH50neCTaC3pUXPCIqmdv3wQQtun+2t1jsV6rRncIJfoIsU/uo45Z8rzKNCYRZZjfzrqgN+7T89q2nvqG6tdGzu1t/ZgxjUn0xgixVPBzl2aLZB03GvA1Uhvw2hUdmPqaG5p2q0nERvtM7WB88DNSg5PR7Ctzt+W8ebEHQXt/LK2GwpZXw2BH9Ia0jksv47mIy4LKQ598b2k4/O49niqysM2e8u+3dW2FUcdJrhdrD/OegvLYdGpwe0vae887qsGDGHUUnuCii212LwD3ORHRdrHNjoiI3hwGOyIiyjwGOyIiyjwGOyIiyjwGOyIiyjwGOyIiyjwGOyIiyjwGOyIiyjwGOyIiyjw+LozWEzzFfmBir5KHfVrDOZY/R/BFjKT9ENFn9YWeakidbQuesm/CfFeG9NeiEQ+80dS98dJstA1ACZ9XyCf00+vHmh1twIFzH3kZjJpdLKFQbGMCb/ywQjBtS4Gu0d3dAKSLOTBPS+G2nAyA8mUPzWcdGfzh3NiBWyTY5jpaRh2FYglte+dFI3oSDHZEa7C0JkxXRPmzunpmInpxGOxoPdY9ppji3vD/blplU72n0Qf/bnQ5Nj18HZv2v3A9GkKRAAhlXI1mNbxGd4hxV01Zx6z2Jes9jEcdNIJ1R2qH3nuz8lxvHMNkNPvDyDLitb7F61ZxPYp+roNGcpld1du+0094IQAAGK9JREFUYB5/O2PTEjXd+PZEl2nh/hcwvTf8v1bwAdwk9ztRhjHY0ZoMHBXraIV/1yfrPYxVoB2kN09NoHLhnWiNOk4GDoRK3T9By2h+kgC7jUPtv3EUpNJcEycPSo1KUA5+xtKqje4QV+8n3vKKJRQMG3l1VcCLD7op63VAn6U527aI8mU0yCxa9wfchqnfM5iuBCWZopUUHNzO9pUrKRiPvBHGw2lCGV8iFwxXFUTSrj+RiwSx1rE3Blvwl+gtYrCjHVOhVERMjEiAtDT8sAHhfRUyAEvrYQIJSleFrJ+jDBMnW+sQ4cD8FlmWrOOj5MDUI0HT6MB0gfzB4mjX6HqDbv7wO3dYWj3WWaX1zYSLPeRiUSuxbgCt4+iFgoXz7zYgCH7HEJ/dngUlqw/bBeCa+Bp0LAn2n7jvbVJuD4jVtg2crxoc1G9vTe+sQpQ97I1JuyXnsAdAUIcYJ2OJG/zHwJHxAWNVwZXkwDzdZg/ORMp1X4AAEcLlEOPkrL+iL0SUo/OkDLrZ6Pop1uja9oHZTGnp3rSBNx0vSKZutJeGBO7n336X8y4W+hO4lTKU0RAfB4t6WxK9bQx29ATW6LZ/58KFtPg2hq1aZzTnZWUOuulHluPfmrFUMDp3NHCqHYzVvQdtRcgfXVvWe7iqXGBc8XrFMugRzTCNSbtl3WMKEVJ1WUcIGU2tDAzOvLYvbc3bDPyazUb8oLokY7ma+gF5ODBPIwFzX1gZqOVqHgJstCPtjl4KcjssrRbeLhCkiInIw2BHO2bg1gaEyvlcb8WgQ0ije4Gy4LWHtY7bmEQ7XwCYOM5cu1br1gaEMpQwaKm4nrsRPIXfBpZX451JGt0N7qG7c+FChN9ktva6rfspEG3Xk3V8qYhrrnQxWe9sfv8fe2PSG8NgRzvXOg5uyp51nf+CJo4ML+gpEiIdWAy0Bw6EykUYDMMOLNEu90YdbRvIq8EyP+DWWOcOaAvn1RLatr88/9/B7QZPR7E0fB048XWfmrMmyEWMut9r0/+cBnxdq8yrivMTYmTfKu9e6ZNriHbob//8x9//E53wx++/4V9//vu5yvMmcZ/T81NxParBSbRTNrpDKODjwuj1SZ5XWbMjIqLMY29MIvIFt1skHwT9vKUi2gYGOyKC94ScxA3wzFxShjCNSUREmcdgR0REmcdgR0REmcdgR0REmcdgR0REmcdgR0REmcdgR0REmcdgR0REmcdgR0REmcdgR0REmcdg92rIaPaHGI/i47AREdFqDHavRmQctu5jhtkmInp7GOxemYnjPHcRiIheHQY7IiLKPAY7IiLKPAa7V8a6nwLSB3ZSISLaAIPda2PUUTAAhb0yiYjWxmD32qgdjFWgXayj9dxlISJ6JRjsXhk5twfYPxnoiIg2wGBHRESZx2BHRESZx2BHRESZx2D3qsiovRfhOnfPXRAiolflv567ALQuGc3+BcowcaJZz10YIqJXhcHu1fAeBE1ERJtjGpOIiDKPwY6IiDKPwY6IiDKPwY6IiDKPwY6IiDKPwY6IiDIv9daDP37/7anL8eZxnxMR7U5qsPvXn/9+6nK8aX/8/hv3ORHRFiUrEExjEhFR5jHYERFR5jHYERFR5jHYERFR5jHYERFR5jHYERFR5jHYERFR5jHYERFR5m02eKus4+ZSwI9iHa3UGVRcj2pwTms4nxtM2xtpW/xewpER/UgH408uTqoakh9pdIdQpI1KiIkRLF/F9UhB/kGfJSKiLHm6kcrVOsqCjbYho9k/B/S0gDjPHZzhUPNnVDsYq3swlwXT2DQb7YWBedVnXwo/aLtm6gUBERGttl6wUzsYq7MqljIaQlkye/5yiDGigUpG85OEiVFCCzKac58QoPSHuBL8l3YbheNkFUvFtV+Gsr/8kGvipNpfa1NeG1mvMdARET3SesHOqKNg4OFpTLWOMkychPFLTAQsB85pCUcWIOs9fMFdynIV5OHEa3WyjpvLMqbfNViQUZsrj7QyMEdN1pzvKeVFEfjVY6AjInqEB6QxVwUQB07stV8jc91IDTEStPw2u55/Ns+LIuIL2EezrwBGCQVDxfVoiGujhHauh6sKYJ6WlqRD101jEhFRlj0g2C0LIF7NbkZGs69gz/Wjl1FHIWizW9sdzqsl//8Gbm0FijrEFQDY7bXa/dbq6JKaOiUioizYcc1uH+KvNg5vP2D8aZ1ly8i9Q7xmJ9ZxM7pA0Jw3MUooHPsv1A7GI78ktgkztqgc9vz/to5Lr7R2p+JAAtxBMq1LRESb2HHNzsDRMQD1w8ql1rpDXEn+8rVIdc3p4PA42htziLHqp0GDtkQAXi2yvPnmvFheOyWMEg5Z4SQiepS1gl0yDbhub0xs0Iuwd1zCyuRmGNy8trtxssNK1L4AwXWR6w4xXvdevRfV69HAURFeGyV4/x8R0WOsFeyeOg0o6z1ciT20Z1PQ7F+g7Ocy3cEZDoulBZ/2P5Hbg/tXB+eaNpuodjBWMauZqjqad9pa7X7Pw2uj/JiTgRcSgomIXqMHPS5M1nsY93XIsylo9oeJaWsy6igkalN5UYTrRNupLJxXSygUSygUz2C/v8B4NPT/9dCcW6mM2nsR0/vIUmUdNwc/UYikYBsAoA1xo29c6icliPvPXQQioldtgza7We3KHZyhUI3XNHp6CefQcTMaQliWXgQAiBD3saCyouJAcmB/s4DPgFC5wLiyrFzxe/YmwPx9ff79eAIw69ASVbnA+P1LSmESEdE2bdBm58A8LaGQGg0sWBYAaDgsaghrer/SuvNbOP9u+x1N0tfnDs5wZAGNz4nHhS01e+RX40DC5HvdC1yyjhsN+FosLQ1kjW4PNRn+dhARUZb87Z//+Pt/ohP++P03/OvPfz9Xed6kZftc1nu4ej9hrZOIaAPJ8yqH+HnhLK0JE2VcPaQ9lIiIADzlqAf0QFbkCTJERPQQrNkREVHmMdgREVHmMdgREVHmMdgREVHmMdgREVHmMdgREVHmMdgREVHmMdgREVHmMdgREVHmMdjRyyZ7I2lcL3hoOBHROvi4MFqPP0zSdGBir5KHHRvCScX1SEE+nHnVEE9PT9Z7uKqIian2bCDfV8Xb33sDE9NKGTAWjWQfPS422gagqJL3lp02IglRdrFmRxtw4NwnJsk6bkYK9gZn/uC6JRSKPYjaS3xwtY12WMYS2rYEZdTxBvF9hab3yYORxh+aq1hHy6j7273zohG9OAx29ChyNQ/BNfE1NuaggaNXMCRR67iNCSR8fOEj1RPR4zHY0Xqse0wxxb3h/41GMkGIpDAX8Nvexv6/aBucrPfC6ePREDcrgs/S+cM2PhXXoyHGox6aa8cyf9DhcNnxz3rr7aChdrz3g2GXEts2jg3H5C+zq6LRjczT9XZAbFpiGKfF793BcR04d8Hf+Lav2n9EbxGDHa3JwFGxjlb412P1J3CxPB0o6z2ML8uYGrMU4m1uFigUNGcpUMOGULlY3CFlzfnz6gfcFksoFJe0Hco57AGY+pFb1uuAHk1ziihfJrdLgnLw05unqsGCjOZn4Ov/394d+yZu/38cf1b6/gs5M7XNGsEtIVIieYQlUa5j2ym6fIXFlmSKqH7jV4cyJdmQ0YEytR17UW7Bo6WcBCw1upXVvvwR/Q02YDuQwCW5FOf1kE4UY3/4mEq84vfnYz7j8miTgVHivJ3qUKHC1nW0z6FDUKjQ73V54x9NthklfouCyqxfUinEyq512B036XK8s8uxO3qccX4iMqawk4dxa2wfOlHgdcMrn8QOFpVyjqBzlJhE0ahFZU63xl68BGq3cAJYWZ1xdTLn/kGndc/EE5OTWgkjcGjao6b3E8HReO8QsEKyaR/nfXxih8vx23jJ1qbZ8eHVanLM0mtOzt+9wguAePnXrfHBAyO3BkA+l4MgYBA77+P75pO4NbaLG2zXlH4iaZqNKQ/n1tgu1sBq0bfC0HvTOQq/dM1VVvDxru74Ao6OS8itwaxRvzn2vxlOOzbsW2X0dMqMxGq7SyXV9E2i6VQJN+xQajZquF9+5hm4DL8ADG+/HoVk49qjYpU475UYzJxtKSLz0pWdPJ5ott9Bx8coH881VlZtd+lbBQbjEucRTvB4+yclZ2Mmgy4c40uUDg8d7m3aatHvVch7zXG7Bx1/3g7NFps5mbduj3OKyGIUdvLownG8XHSxNeSGHIWdaclnsVUgVeJcI2fMannR/RdgbZLHxzmM3Xe3ZnBf09WtAgQOB7HgzOfS9/N9vcbbSaDnt5R2Il9LYScPYtYvb83+M3fyGHhc2zAaw0pf6VXrdUw+4weTcSqAajtdDoxbdP8FfA4mAQ2AxUW6VDrFwPeTs1Gt1q0y6Neotr/i/r+vnI1ZbU9mh4pklcbs5EHc2i4f2l36vdjGwOGgOJm04dZ2OeCS87Mu/WjbwN6gAbh1h49nFfq9SrT9COfVKaXp78bxQvsvdCK86+Q5t7r0LQCP5qHDytndLbu1E5zXp5OxQK/JQWeF8/LDutN4H/DxnvHFx2Gy+goGf2lQULLtux9/+P6f+IZff/mZ3//487n68yLpM5enYXHR28VP/XRbtd2lQhSeZp2PZwYflvJn00RmS3+vqowp8pKtGRjxWxxEMkplTJFMy1E669K/9UPQ0cv2PuuqYMoLoLATySybvWIyyRoKNnmhVMYUEZHMU9iJiEjmKexERCTzFHYiIpJ5CjsREck8hZ2IiGSewk5ERDJPYSciIpmnsBMRkcxT2ImISOYp7GQ+0VppF/U6H3uX4dp0962fNjrmX7lUWrgyeT/1b9G14P4tzPol/V6Lk/ol/as6s86i2p6c64VlcnI1en4518ryIstKYScL8PGHsafuFV4AxuudqV+uyUVcH+iJgjPoHLFe3Aj/HTpQPl3awCMIGN6/1/ic92yX453wvIMn75zI81LYyQO4XP7tg5Fn91Y+WFTKOYJOa3nWSXNrvOv4GOX9xVcJF5F/NYWdzMcdcsMNQzt6jBYDdWuXDMhR2EmlnbVJHh/vKrZqKPGyWZd+r3U7VKxW7PWwtGbWL+mflTCAvDUqwc1qM12KjF5vW+MS3kJXbon+hO1Mmh5dbY5KopNSYLxc2E9fkVqtcF8rPD5RRjTj21LH3fGaO7yBL0Ma0aMbP/c7ypoiL4XCTuZks1fcpzF+nGy/9m6XMqtbBQgGXI6zzuKid0rh70nZsOkVqMQCr9ru0rdWcA6jsmLxBHYs3NruuNQ2sDeiEtykzdKX5qQUWWxyUz5NhhJAocLWdbjPds1llnwuB+PFTC0utj4lypxBoXIrLPPWJtfFDdaL0YrgVmv8XuvFDQ46PnkrPSaWo/QTvBt/FtG6c2cGH8bbIG+NPh+Li7MSxMqu16uxELP3w5XHR48ikqCwkwdrXHupUqbFVgGCv68YxYpZ3yUfOLyLBU3jvUNAgS0LMOu8KcDAjgIDAJfj2uwvbrO+Sx6PZuLL3WbP9qCwmwyXwKF5XwZYLSoFGPxVi/ptsxdv263xwQMjt5Y47Fap1t6Pwnh0WHj1mzzMx6nXxp9P4zpcTXVgT/6QCD+fFVZNwFxlBbgZxj6/2uT46aIxuZ379hPJPi3eKg9nf2JgVcJSputGJUyPZizY8rkcGDnOe6Vbh98ArBkYeHxY4KIkn8uBd3l7TPBzQEAhDJdRF8alvSSjfEq/PHrm4xxuxMKWsHQYlVDHglXMWNPxAJocdsl5OUfysPhR0/q8gv85/UIUkvYVXlCiZHXp/+RwoAATWYjCTh6BTbOzy/nrHUxc8lsF8Jq3Q8hrzi6xPdPtCUHnaGZZcxRYQeeI9WifartL5dVdLZqcXJ1SMuLBaXHRq7DyoJ6GV2mj8D3vlSBQ6InMS2VMeRTu1YDAyLNrhiXMQep+g4HvQ2Fz9izH6Gpsa4HQm9lmdJX4sFseTHZf58BrxsLQZPXOoAPMHQpGqhwblSAfhVtju7jBup0uHYvIXRR28jjcK7wgR6EWjqOlg8a9GhBQoJKYOGJxMZopGI2HTSZkAJic1KP93SE3wMrq5Ns9HAub0qZVeIRbHlyGX4BXq+NJIGb9mJJx1zHT+mlyUkuVQb+GWedi4fv/vnI2ptWaPlNWZImpjCmPJLznrlTOEXRObgeNW2O7OOSiV6Hfq0QbPZrF/ckkjbcb0O5S6XUJ9/BxDnejV6NSaTTGNrA32LNt9oqfObk6jbUZvrb9CBMSG2+bbPUq43HGoHNE0zu9p4xps2dv0rdGY4E+zmGTwdkDy5hujev/dun3RhvCz+b4CWqY5urK9LFQkSX23Y8/fP9PfMOvv/zM73/8+Vz9eZH0mcu3Um13eeOnxinNOh/P8niHuxy74Zhj7q+NxIxSkWWT/l5VGVNEYtbIGf6UWaEiy01lTJEXxhiXgo/wfzqNxiF9wjv9bPaKuqST7FHYibwgjbcbqRvgN56rKyLflMqYIiKSeQo7ERHJPIWdiIhknsJOREQyT2EnIiKZp7ATEZHMU9iJiEjmKexERCTzFHYiIpJ5CjsREck8/VyYzCdaIfum47BSjn4hn3DbzLXalnUlbatF3yqkNj7dkjpPK1o5/YuD86pE4e9ZK7OHq6nnAfBo2lAZfQZ3rTAvsiR0ZScL8PGHsaejVbOLG6wXmwwI13xbH217pKCrtr9iAdIH83EON8bnctCB0tklJ0u6MniQ+B83y+ic92nY+6wXN2h6T941kW9CYScyB7d2ghPkKP3Xun9nEfnXUdjJfNwhN9wwtKPHRS/ZrBb9Xnf872PdTGwfP09s+x8XvS6VAmCUOO9NrvCq7S79tjXlPSZXX2b9kn6vRXX03rGrw/C1SX8uFs4wk5OrbqyN5FXf7Pe2uOjFj2tRTbfZtsLzG+0TnWdiW+pKN3k+8TZdhl/gZmhHj+7oAD6mP3eRDFPYyZxs9or7NMaP8zPrl/QtaI7Km4cOlE/DL1p7n4OOj1Hej76gTU5+KoDXZLv2f+yNSmmBw8FXlUYLVLY+Jcqq1XaX89eDsL3iBuu2R966L/DWyBkQRKuamvV9qE/KnE0vR+ksHjKz3nuT63Hp9wgnKFBJl2gLFbauJ59VUKjQ74UrjI+3GSV+i/3BcF4mVnb9xGosxBpvw1XHR48iL5HCTp6YRaWcY2DHAtKt8cED4/UOJuDWLhlQoNK2MOvHlHA4eLQJET7O+1hbZp03BR+nHgtNu4UTQH5rdtpV2xXyeHyIJne4tf3EZJXGe4eAFVYTqZV6b6DxNv6HgsvxXx4YRjQxJOI1J6HkXuEFQODwbjSxZPT55dbCU1pdgcTVts3x1EkoMdF46/TJKiLZo9mY8rTMVVYAw+rST2dJMPoPmz17k75V4bzg4xw+5gzOVMl1zcAgh3HWpZ/e9Uv8SY5SfJ/A4aCY7Fe1HZVY4++2BpOdppV7o9mRiSmsfhiSU086LEPC8PbLr1bDPxauBgTlEpVelzedWbMtRV42hZ18A3NM2/8cEFCYfRvDo/Jo3luKvavPo2n6sXaiWzPuFO1jxIPTatG3Vr7qLMbcGtvFGmb9kvPyKf1yOCtWoScyoTKmPC13yA05Cjt3TYQwOamVoHMUjn3V5rzNILqyWUgUqndULO9nbZLHxzmMBeaacW9Qmzt5DDyasXHHsAT5ONza7vh2gVGJWERCCjt5YjbXHhjl41uzFUcTQqrtU0pGOB7WeNtkEJ98AQx8/9a4VuPaA6NEZRxaFhe3bgSfIhoDy1vJySTV9gL30H0OCMgRDZnN/d7u8Abi43pmnd/KuTnfdDaz3lr8/j/NxpQXRmEnT67xdnRT9mTq/G+csGeHoVcpEJvAYtPs+Bjl03EYjiewxKfc2/s0PchbozY3ubbnuQPa5Xhng6YXtRf927pe4NdR3BrvOn7yvQ+dyRDkLPZ+NGszOq4G7+bq833d+UQu9tlWXi3pL9eIPKHvfvzh+3/iG3795Wd+/+PP5+rPi6TPXJ6fxUVvFz81Tlltd6mgnwuT5ZP+XtWVnYiIZJ5mY4pIZHS7RfqHoJ+3VyKPQWEnIoS/kJO6AV6VS8kQlTFFRCTzFHYiIpJ5CjsREck8hZ2IiGSewk5ERDJPYSciIpmnsBMRkcxT2ImISOYp7EREJPMUdiIiknkKu6VhcnLVpd9LrsMmIiL3U9gtjdg6bO2HLLMtIvLyKOyWzMD3n7sLIiJLR2EnIiKZp7ATEZHMU9gtGXd4A4VNTVIREVmAwm7Z2Pus21DRrEwRkbkp7JaN1aJvQbO4T+O5+yIisiQUdkvGXF0B75OCTkRkAQo7ERHJPIWdiIhknsJOREQyT2G3VEx2X+cI/M/P3RERkaXyn+fugMzL5OTqlBIOBzX3uTsjIrJUFHZLI/whaBERWZzKmCIiknkKOxERyTyFnYiIZJ7CTkREMk9hJyIimaewExGRzJt668Gvv/z8rfvx4ukzFxF5Ov8Pg02dmlXsktgAAAAASUVORK5CYII=;" vertex="1" parent="WIyWlLk6GJQsqaUBKTNV-1">
          <mxGeometry y="1012.5" width="443" height="455" as="geometry" />
        </mxCell>
      </root>
    </mxGraphModel>
  </diagram>
</mxfile>
